<svg xmlns="http://www.w3.org/2000/svg" viewBox="0 0 256 256" role="img" aria-label="Cat" fill="none">
  <defs>
    <linearGradient id="g" x1="48" y1="40" x2="208" y2="216" gradientUnits="userSpaceOnUse">
      <stop offset="0" stop-color="#111827"/>
      <stop offset="1" stop-color="#374151"/>
    </linearGradient>
  </defs>

  <!-- background circle -->
  <circle cx="128" cy="128" r="116" fill="#f3f4f6" stroke="#e5e7eb" stroke-width="8"/>

  <!-- ears -->
  <path d="M70 86 L54 46 L96 66 Z" fill="url(#g)"/>
  <path d="M186 86 L202 46 L160 66 Z" fill="url(#g)"/>

  <!-- head -->
  <path d="M64 112 C64 82 92 64 128 64 C164 64 192 82 192 112 C192 160 170 196 128 196 C86 196 64 160 64 112 Z" fill="url(#g)"/>

  <!-- cheeks -->
  <path d="M78 130 C86 156 104 172 128 172 C152 172 170 156 178 130" stroke="#9ca3af" stroke-width="6" stroke-linecap="round"/>

  <!-- eyes -->
  <ellipse cx="104" cy="122" rx="10" ry="12" fill="#f9fafb"/>
  <ellipse cx="152" cy="122" rx="10" ry="12" fill="#f9fafb"/>
  <ellipse cx="104" cy="124" rx="4" ry="7" fill="#111827"/>
  <ellipse cx="152" cy="124" rx="4" ry="7" fill="#111827"/>

  <!-- nose -->
  <path d="M128 136 L120 146 H136 Z" fill="#fda4af"/>

  <!-- mouth -->
  <path d="M128 146 C122 152 116 154 110 154" stroke="#f9fafb" stroke-width="6" stroke-linecap="round"/>
  <path d="M128 146 C134 152 140 154 146 154" stroke="#f9fafb" stroke-width="6" stroke-linecap="round"/>

  <!-- whiskers -->
  <path d="M92 144 H56" stroke="#f9fafb" stroke-width="5" stroke-linecap="round" opacity="0.9"/>
  <path d="M92 156 H52" stroke="#f9fafb" stroke-width="5" stroke-linecap="round" opacity="0.75"/>
  <path d="M164 144 H200" stroke="#f9fafb" stroke-width="5" stroke-linecap="round" opacity="0.9"/>
  <path d="M164 156 H204" stroke="#f9fafb" stroke-width="5" stroke-linecap="round" opacity="0.75"/>
</svg>
